<svg width="145" height="70" viewBox="0 0 145 70" fill="none" xmlns="http://www.w3.org/2000/svg">
<path d="M25.464 69.536C20.216 69.536 15.48 68.704 11.256 67.04C7.032 65.312 3.512 62.816 0.696 59.552L12.888 45.152C14.68 47.328 16.44 48.992 18.168 50.144C19.896 51.232 21.688 51.776 23.544 51.776C28.408 51.776 30.84 48.992 30.84 43.424V17.888H7.992V0.799995H53.208V42.08C53.208 51.296 50.84 58.176 46.104 62.72C41.368 67.264 34.488 69.536 25.464 69.536ZM63.597 68V0.799995H82.221L109.101 44.672H99.309L125.421 0.799995H144.045L144.237 68H123.597L123.405 31.904H126.669L108.813 61.952H98.829L80.205 31.904H84.237V68H63.597Z" fill="#009FC1"/>
</svg>
