<svg width="594" height="117" viewBox="0 0 594 117" fill="none" xmlns="http://www.w3.org/2000/svg">
<path d="M25.464 94.536C20.216 94.536 15.48 93.704 11.256 92.04C7.032 90.312 3.512 87.816 0.696 84.552L12.888 70.152C14.68 72.328 16.44 73.992 18.168 75.144C19.896 76.232 21.688 76.776 23.544 76.776C28.408 76.776 30.84 73.992 30.84 68.424V42.888H7.992V25.8H53.208V67.08C53.208 76.296 50.84 83.176 46.104 87.72C41.368 92.264 34.488 94.536 25.464 94.536ZM63.597 93V25.8H82.221L109.101 69.672H99.309L125.421 25.8H144.045L144.237 93H123.597L123.405 56.904H126.669L108.813 86.952H98.829L80.205 56.904H84.237V93H63.597Z" fill="#009FC1"/>
<path d="M170 25V93" stroke="#595959"/>
<path d="M193.744 30.972H209.188V34.32H197.236V42.636H207.712V45.948H197.236V57H193.744V30.972ZM221.855 30.972C223.175 30.972 224.387 31.152 225.491 31.512C226.619 31.848 227.591 32.364 228.407 33.06C229.247 33.732 229.895 34.572 230.351 35.58C230.831 36.564 231.071 37.716 231.071 39.036C231.071 40.068 230.915 41.076 230.603 42.06C230.315 43.044 229.823 43.944 229.127 44.76C228.431 45.552 227.519 46.2 226.391 46.704C225.287 47.184 223.919 47.424 222.287 47.424H218.435V57H214.943V30.972H221.855ZM222.215 44.076C223.247 44.076 224.099 43.92 224.771 43.608C225.467 43.296 226.007 42.9 226.391 42.42C226.775 41.916 227.051 41.376 227.219 40.8C227.387 40.224 227.471 39.684 227.471 39.18C227.471 38.652 227.375 38.112 227.183 37.56C227.015 36.984 226.727 36.456 226.319 35.976C225.935 35.496 225.419 35.1 224.771 34.788C224.147 34.476 223.379 34.32 222.467 34.32H218.435V44.076H222.215ZM226.499 46.056L233.303 57H229.271L222.359 46.164L226.499 46.056ZM236.491 44.004C236.491 42.204 236.827 40.512 237.499 38.928C238.195 37.32 239.155 35.904 240.379 34.68C241.603 33.432 243.007 32.46 244.591 31.764C246.199 31.044 247.927 30.684 249.775 30.684C251.599 30.684 253.303 31.044 254.887 31.764C256.495 32.46 257.911 33.432 259.135 34.68C260.383 35.904 261.355 37.32 262.051 38.928C262.747 40.512 263.095 42.204 263.095 44.004C263.095 45.852 262.747 47.58 262.051 49.188C261.355 50.796 260.383 52.212 259.135 53.436C257.911 54.636 256.495 55.584 254.887 56.28C253.303 56.952 251.599 57.288 249.775 57.288C247.927 57.288 246.199 56.952 244.591 56.28C243.007 55.608 241.603 54.672 240.379 53.472C239.155 52.272 238.195 50.868 237.499 49.26C236.827 47.652 236.491 45.9 236.491 44.004ZM240.091 44.04C240.091 45.408 240.343 46.692 240.847 47.892C241.351 49.068 242.047 50.112 242.935 51.024C243.823 51.936 244.855 52.656 246.031 53.184C247.207 53.688 248.479 53.94 249.847 53.94C251.191 53.94 252.451 53.688 253.627 53.184C254.803 52.656 255.823 51.936 256.687 51.024C257.551 50.112 258.235 49.068 258.739 47.892C259.243 46.692 259.495 45.396 259.495 44.004C259.495 42.636 259.243 41.352 258.739 40.152C258.235 38.928 257.539 37.86 256.651 36.948C255.763 36.036 254.731 35.328 253.555 34.824C252.379 34.296 251.119 34.032 249.775 34.032C248.407 34.032 247.135 34.296 245.959 34.824C244.783 35.352 243.751 36.072 242.863 36.984C241.975 37.896 241.291 38.964 240.811 40.188C240.331 41.388 240.091 42.672 240.091 44.04ZM291.514 57.828L271.39 37.416L272.398 37.668L272.47 57H268.978V30.18H269.158L289.066 50.664L288.238 50.484L288.166 30.972H291.622V57.828H291.514ZM297.199 30.972H314.479V34.32H307.495V57H304.003V34.32H297.199V30.972ZM331.416 30.972H348.336V34.32H334.908V42.24H346.896V45.588H334.908V53.652H348.84V57H331.416V30.972ZM377.436 57.828L357.312 37.416L358.32 37.668L358.392 57H354.9V30.18H355.08L374.988 50.664L374.16 50.484L374.088 30.972H377.544V57.828H377.436ZM385.029 57V30.972H392.121C394.689 30.972 396.873 31.368 398.673 32.16C400.497 32.952 401.961 33.996 403.065 35.292C404.169 36.588 404.973 38.028 405.477 39.612C406.005 41.172 406.269 42.732 406.269 44.292C406.269 46.26 405.921 48.024 405.225 49.584C404.553 51.144 403.617 52.476 402.417 53.58C401.217 54.684 399.837 55.536 398.277 56.136C396.741 56.712 395.109 57 393.381 57H385.029ZM388.521 53.652H392.697C394.137 53.652 395.457 53.436 396.657 53.004C397.881 52.572 398.937 51.948 399.825 51.132C400.737 50.316 401.445 49.32 401.949 48.144C402.453 46.944 402.705 45.588 402.705 44.076C402.705 42.468 402.441 41.064 401.913 39.864C401.385 38.64 400.665 37.62 399.753 36.804C398.841 35.988 397.809 35.376 396.657 34.968C395.505 34.536 394.293 34.32 393.021 34.32H388.521V53.652ZM207.208 71.616C206.32 71.16 205.348 70.764 204.292 70.428C203.236 70.092 202.204 69.924 201.196 69.924C199.804 69.924 198.688 70.248 197.848 70.896C197.032 71.544 196.624 72.408 196.624 73.488C196.624 74.304 196.888 75 197.416 75.576C197.944 76.128 198.64 76.608 199.504 77.016C200.368 77.424 201.268 77.808 202.204 78.168C203.02 78.48 203.824 78.828 204.616 79.212C205.408 79.596 206.116 80.076 206.74 80.652C207.388 81.228 207.892 81.936 208.252 82.776C208.636 83.616 208.828 84.66 208.828 85.908C208.828 87.276 208.48 88.524 207.784 89.652C207.112 90.78 206.14 91.668 204.868 92.316C203.596 92.964 202.084 93.288 200.332 93.288C199.18 93.288 198.076 93.156 197.02 92.892C195.988 92.628 195.028 92.292 194.14 91.884C193.252 91.452 192.46 91.008 191.764 90.552L193.312 87.816C193.888 88.224 194.548 88.62 195.292 89.004C196.036 89.364 196.816 89.664 197.632 89.904C198.448 90.12 199.24 90.228 200.008 90.228C200.824 90.228 201.628 90.084 202.42 89.796C203.236 89.484 203.908 89.016 204.436 88.392C204.964 87.768 205.228 86.94 205.228 85.908C205.228 85.02 204.988 84.288 204.508 83.712C204.052 83.112 203.44 82.608 202.672 82.2C201.904 81.768 201.088 81.384 200.224 81.048C199.408 80.736 198.58 80.4 197.74 80.04C196.9 79.656 196.12 79.2 195.4 78.672C194.68 78.12 194.104 77.448 193.672 76.656C193.24 75.864 193.024 74.904 193.024 73.776C193.024 72.408 193.348 71.22 193.996 70.212C194.668 69.18 195.58 68.376 196.732 67.8C197.884 67.2 199.204 66.876 200.692 66.828C202.372 66.828 203.848 67.032 205.12 67.44C206.416 67.848 207.556 68.352 208.54 68.952L207.208 71.616ZM213.077 80.004C213.077 78.204 213.413 76.512 214.085 74.928C214.781 73.32 215.741 71.904 216.965 70.68C218.189 69.432 219.593 68.46 221.177 67.764C222.785 67.044 224.513 66.684 226.361 66.684C228.185 66.684 229.889 67.044 231.473 67.764C233.081 68.46 234.497 69.432 235.721 70.68C236.969 71.904 237.941 73.32 238.637 74.928C239.333 76.512 239.681 78.204 239.681 80.004C239.681 81.852 239.333 83.58 238.637 85.188C237.941 86.796 236.969 88.212 235.721 89.436C234.497 90.636 233.081 91.584 231.473 92.28C229.889 92.952 228.185 93.288 226.361 93.288C224.513 93.288 222.785 92.952 221.177 92.28C219.593 91.608 218.189 90.672 216.965 89.472C215.741 88.272 214.781 86.868 214.085 85.26C213.413 83.652 213.077 81.9 213.077 80.004ZM216.677 80.04C216.677 81.408 216.929 82.692 217.433 83.892C217.937 85.068 218.633 86.112 219.521 87.024C220.409 87.936 221.441 88.656 222.617 89.184C223.793 89.688 225.065 89.94 226.433 89.94C227.777 89.94 229.037 89.688 230.213 89.184C231.389 88.656 232.409 87.936 233.273 87.024C234.137 86.112 234.821 85.068 235.325 83.892C235.829 82.692 236.081 81.396 236.081 80.004C236.081 78.636 235.829 77.352 235.325 76.152C234.821 74.928 234.125 73.86 233.237 72.948C232.349 72.036 231.317 71.328 230.141 70.824C228.965 70.296 227.705 70.032 226.361 70.032C224.993 70.032 223.721 70.296 222.545 70.824C221.369 71.352 220.337 72.072 219.449 72.984C218.561 73.896 217.877 74.964 217.397 76.188C216.917 77.388 216.677 78.672 216.677 80.04ZM245.564 66.972H261.008V70.32H249.056V78.636H259.532V81.948H249.056V93H245.564V66.972ZM264.856 66.972H282.136V70.32H275.152V93H271.66V70.32H264.856V66.972ZM285.414 67.116H289.446L296.502 86.988L295.89 86.736L301.038 73.416L302.658 78.132L295.782 94.188L285.414 67.116ZM297.906 67.116H301.398L309.03 86.7L308.31 86.556L315.042 67.116H318.75L308.526 94.152L297.906 67.116ZM318.101 93L329.477 65.892H329.693L341.033 93H337.037L328.541 71.364L331.025 69.744L321.521 93H318.101ZM324.761 83.136H334.445L335.597 86.16H323.753L324.761 83.136ZM352.847 66.972C354.167 66.972 355.379 67.152 356.483 67.512C357.611 67.848 358.583 68.364 359.399 69.06C360.239 69.732 360.887 70.572 361.343 71.58C361.823 72.564 362.063 73.716 362.063 75.036C362.063 76.068 361.907 77.076 361.595 78.06C361.307 79.044 360.815 79.944 360.119 80.76C359.423 81.552 358.511 82.2 357.383 82.704C356.279 83.184 354.911 83.424 353.279 83.424H349.427V93H345.935V66.972H352.847ZM353.207 80.076C354.239 80.076 355.091 79.92 355.763 79.608C356.459 79.296 356.999 78.9 357.383 78.42C357.767 77.916 358.043 77.376 358.211 76.8C358.379 76.224 358.463 75.684 358.463 75.18C358.463 74.652 358.367 74.112 358.175 73.56C358.007 72.984 357.719 72.456 357.311 71.976C356.927 71.496 356.411 71.1 355.763 70.788C355.139 70.476 354.371 70.32 353.459 70.32H349.427V80.076H353.207ZM357.491 82.056L364.295 93H360.263L353.351 82.164L357.491 82.056ZM369.666 66.972H386.586V70.32H373.158V78.24H385.146V81.588H373.158V89.652H387.09V93H369.666V66.972ZM404.541 66.972H421.461V70.32H408.033V78.24H420.021V81.588H408.033V89.652H421.965V93H404.541V66.972ZM450.561 93.828L430.437 73.416L431.445 73.668L431.517 93H428.025V66.18H428.205L448.113 86.664L447.285 86.484L447.213 66.972H450.669V93.828H450.561ZM478.53 90.768C478.17 91.08 477.666 91.392 477.018 91.704C476.37 91.992 475.65 92.256 474.858 92.496C474.09 92.736 473.286 92.928 472.446 93.072C471.63 93.216 470.862 93.288 470.142 93.288C468.054 93.288 466.17 92.964 464.49 92.316C462.834 91.668 461.406 90.768 460.206 89.616C459.03 88.464 458.118 87.108 457.47 85.548C456.846 83.988 456.534 82.296 456.534 80.472C456.534 78.312 456.882 76.38 457.578 74.676C458.298 72.948 459.27 71.496 460.494 70.32C461.742 69.12 463.17 68.22 464.778 67.62C466.386 66.996 468.09 66.684 469.89 66.684C471.402 66.684 472.806 66.864 474.102 67.224C475.398 67.584 476.538 68.04 477.522 68.592L476.334 71.796C475.854 71.508 475.254 71.244 474.534 71.004C473.838 70.764 473.118 70.572 472.374 70.428C471.63 70.26 470.934 70.176 470.286 70.176C468.75 70.176 467.358 70.416 466.11 70.896C464.862 71.352 463.794 72.024 462.906 72.912C462.018 73.776 461.334 74.832 460.854 76.08C460.374 77.304 460.134 78.684 460.134 80.22C460.134 81.636 460.374 82.932 460.854 84.108C461.334 85.284 462.018 86.304 462.906 87.168C463.794 88.008 464.85 88.668 466.074 89.148C467.322 89.604 468.69 89.832 470.178 89.832C471.066 89.832 471.942 89.748 472.806 89.58C473.67 89.388 474.414 89.124 475.038 88.788V83.604H469.854V80.256H478.53V90.768ZM485.189 66.972H488.681V93H485.189V66.972ZM518.694 93.828L498.57 73.416L499.578 73.668L499.65 93H496.158V66.18H496.338L516.246 86.664L515.418 86.484L515.346 66.972H518.802V93.828H518.694ZM526.287 66.972H543.207V70.32H529.779V78.24H541.767V81.588H529.779V89.652H543.711V93H526.287V66.972ZM549.771 66.972H566.691V70.32H553.263V78.24H565.251V81.588H553.263V89.652H567.195V93H549.771V66.972ZM580.168 66.972C581.488 66.972 582.7 67.152 583.804 67.512C584.932 67.848 585.904 68.364 586.72 69.06C587.56 69.732 588.208 70.572 588.664 71.58C589.144 72.564 589.384 73.716 589.384 75.036C589.384 76.068 589.228 77.076 588.916 78.06C588.628 79.044 588.136 79.944 587.44 80.76C586.744 81.552 585.832 82.2 584.704 82.704C583.6 83.184 582.232 83.424 580.6 83.424H576.748V93H573.256V66.972H580.168ZM580.528 80.076C581.56 80.076 582.412 79.92 583.084 79.608C583.78 79.296 584.32 78.9 584.704 78.42C585.088 77.916 585.364 77.376 585.532 76.8C585.7 76.224 585.784 75.684 585.784 75.18C585.784 74.652 585.688 74.112 585.496 73.56C585.328 72.984 585.04 72.456 584.632 71.976C584.248 71.496 583.732 71.1 583.084 70.788C582.46 70.476 581.692 70.32 580.78 70.32H576.748V80.076H580.528ZM584.812 82.056L591.616 93H587.584L580.672 82.164L584.812 82.056Z" fill="#595959"/>
</svg>
